<?xml version="1.0" encoding="UTF-8"?>
<svg version="1.1" xmlns="http://www.w3.org/2000/svg" width="132" height="132">
<path d="M0 0 C43.56 0 87.12 0 132 0 C132 43.56 132 87.12 132 132 C88.44 132 44.88 132 0 132 C0 88.44 0 44.88 0 0 Z " fill="#FDCED1" transform="translate(0,0)"/>
<path d="M0 0 C5.28 0 10.56 0 16 0 C16 0.33 16 0.66 16 1 C14.35 1.33 12.7 1.66 11 2 C10.67 7.61 10.34 13.22 10 19 C18.91 19 27.82 19 37 19 C36.67 13.39 36.34 7.78 36 2 C33.525 1.505 33.525 1.505 31 1 C31 0.67 31 0.34 31 0 C36.28 0 41.56 0 47 0 C47 0.33 47 0.66 47 1 C45.35 1.33 43.7 1.66 42 2 C41.9906543 2.89307861 41.98130859 3.78615723 41.97167969 4.70629883 C41.92764696 8.02235162 41.86603139 11.33710939 41.79248047 14.65258789 C41.76426818 16.08703683 41.74305476 17.52164129 41.72900391 18.95629883 C41.70757551 21.01985302 41.66093533 23.08153706 41.609375 25.14453125 C41.58842773 26.38565674 41.56748047 27.62678223 41.54589844 28.90551758 C41 32 41 32 37 35 C37 30.38 37 25.76 37 21 C28.09 21 19.18 21 10 21 C10.144375 24.09375 10.28875 27.1875 10.4375 30.375 C10.48060303 31.34872559 10.52370605 32.32245117 10.56811523 33.32568359 C10.60622314 34.09219238 10.64433105 34.85870117 10.68359375 35.6484375 C10.72025146 36.43395996 10.75690918 37.21948242 10.79467773 38.02880859 C10.890891 40.07523496 10.890891 40.07523496 12 42 C9.36 42 6.72 42 4 42 C4.33 41.34 4.66 40.68 5 40 C5.08691001 37.15570643 5.11553802 34.33620824 5.09765625 31.4921875 C5.0962413 30.65156769 5.09482635 29.81094788 5.09336853 28.94485474 C5.08776237 26.25486725 5.07520886 23.56496241 5.0625 20.875 C5.05748579 19.05338662 5.05292275 17.23177193 5.04882812 15.41015625 C5.03779094 10.94007223 5.0205222 6.47005014 5 2 C3.35 1.67 1.7 1.34 0 1 C0 0.67 0 0.34 0 0 Z " fill="#4D4746" transform="translate(25,28)"/>
<path d="M0 0 C1.39574507 2.79149013 0.94596307 5.01567126 0.8125 8.125 C0.77508347 14.90487586 1.70671389 19.64790521 6.53125 24.55859375 C11.00072624 28.42556707 13.55781947 29.15481921 19.375 29.1875 C21.08816406 29.20876953 21.08816406 29.20876953 22.8359375 29.23046875 C25.90474404 29.0069384 27.51030143 28.75180148 30 27 C31.31210005 25.30272775 31.31210005 25.30272775 32.25 23.375 C33.11625 21.704375 33.11625 21.704375 34 20 C35 23 35 23 34.5 26 C32.88150005 29.2369999 31.66513368 30.33916182 28.25 31.52734375 C17.90903994 33.69966349 10.33255572 31.4208848 1.6875 25.875 C-2.63821379 21.24749222 -4.47124266 15.99629159 -5.5625 9.8125 C-4.75717879 5.78589393 -2.58521208 3.12072029 0 0 Z " fill="#484343" transform="translate(68,74)"/>
<path d="M0 0 C5.28 0 10.56 0 16 0 C16 0.33 16 0.66 16 1 C14.7934375 1.185625 14.7934375 1.185625 13.5625 1.375 C12.716875 1.58125 11.87125 1.7875 11 2 C7.16790481 9.66419037 8.89048954 22.50313255 9.3125 30.875 C9.34714355 31.64134766 9.38178711 32.40769531 9.41748047 33.19726562 C9.64575654 36.91323215 9.89349378 38.84024066 12 42 C9.36 42 6.72 42 4 42 C4.33 41.34 4.66 40.68 5 40 C5.08691001 37.15570643 5.11553802 34.33620824 5.09765625 31.4921875 C5.0962413 30.65156769 5.09482635 29.81094788 5.09336853 28.94485474 C5.08776237 26.25486725 5.07520886 23.56496241 5.0625 20.875 C5.05748579 19.05338662 5.05292275 17.23177193 5.04882812 15.41015625 C5.03779094 10.94007223 5.0205222 6.47005014 5 2 C3.35 1.67 1.7 1.34 0 1 C0 0.67 0 0.34 0 0 Z " fill="#474441" transform="translate(25,28)"/>
<path d="M0 0 C0.33 0 0.66 0 1 0 C1 4.95 1 9.9 1 15 C9.91 15 18.82 15 28 15 C28 15.66 28 16.32 28 17 C19.09 17 10.18 17 1 17 C1 22.94 1 28.88 1 35 C0.67 35 0.34 35 0 35 C-0.77806859 23.20926829 -1.1596298 11.77470256 0 0 Z " fill="#635C56" transform="translate(34,32)"/>
<path d="M0 0 C1 3 1 3 0.5 6 C-1.11849995 9.2369999 -2.33486632 10.33916182 -5.75 11.52734375 C-14.27564581 13.31832143 -21.45861838 12.26583203 -29 8 C-28.67 7.34 -28.34 6.68 -28 6 C-23.25 7.875 -23.25 7.875 -21 9 C-18.87764193 9.1229938 -16.75088537 9.17555682 -14.625 9.1875 C-12.91183594 9.20876953 -12.91183594 9.20876953 -11.1640625 9.23046875 C-8.09525596 9.0069384 -6.48969857 8.75180148 -4 7 C-2.68789995 5.30272775 -2.68789995 5.30272775 -1.75 3.375 C-0.88375 1.704375 -0.88375 1.704375 0 0 Z " fill="#68595E" transform="translate(102,94)"/>
<path d="M0 0 C1 1 1 1 1.09765625 2.84765625 C1.06510417 4.8984375 1.03255208 6.94921875 1 9 C0.34 8.01 -0.32 7.02 -1 6 C-3.54045287 2.46321928 -3.54045287 2.46321928 -7 0 C-9.08060425 -0.1235718 -11.16576333 -0.17560367 -13.25 -0.1875 C-14.92835937 -0.20876953 -14.92835937 -0.20876953 -16.640625 -0.23046875 C-20.07764584 0.00532687 -22.79530445 0.77153337 -26 2 C-25.67 1.01 -25.34 0.02 -25 -1 C-16.98049053 -5.00975473 -7.82278373 -3.62165913 0 0 Z " fill="#584E51" transform="translate(101,64)"/>
<path d="M0 0 C0.66 0 1.32 0 2 0 C2.04898438 1.26457031 2.09796875 2.52914062 2.1484375 3.83203125 C2.2234738 5.49220947 2.29902127 7.15236464 2.375 8.8125 C2.4059375 9.64587891 2.436875 10.47925781 2.46875 11.33789062 C2.50742187 12.14033203 2.54609375 12.94277344 2.5859375 13.76953125 C2.6173584 14.50792236 2.6487793 15.24631348 2.68115234 16.00708008 C2.90834614 18.31349588 2.90834614 18.31349588 5 21 C2.36 21 -0.28 21 -3 21 C-2.01 19.515 -2.01 19.515 -1 18 C-0.63648496 15.97457852 -0.63648496 15.97457852 -0.5859375 13.76953125 C-0.54726563 12.96708984 -0.50859375 12.16464844 -0.46875 11.33789062 C-0.4378125 10.50451172 -0.406875 9.67113281 -0.375 8.8125 C-0.33632813 7.96751953 -0.29765625 7.12253906 -0.2578125 6.25195312 C-0.16363721 4.16832476 -0.08073325 2.08419247 0 0 Z " fill="#343333" transform="translate(32,49)"/>
<path d="M0 0 C3.63396553 1.00943487 4.93391767 1.91605758 7.3125 4.9375 C9 8 9 8 9 11 C5.9516752 10.67339377 4.99492311 9.99477806 2.8125 7.75 C1.01723222 5.02614544 0.36634132 3.20548651 0 0 Z " fill="#3F3C3B" transform="translate(65,90)"/>
<path d="M0 0 C1.27596315 3.82788944 0.62344752 5.36656983 -1 9 C-3.90289904 11.20219927 -6.43369592 11.198128 -10 11 C-9.4225 10.5875 -8.845 10.175 -8.25 9.75 C-4.59663925 6.9084972 -1.84127058 4.29629801 0 0 Z " fill="#3D3B3A" transform="translate(102,94)"/>
<path d="M0 0 C5.28 0 10.56 0 16 0 C16 0.33 16 0.66 16 1 C11.05 2.485 11.05 2.485 6 4 C5.67 3.34 5.34 2.68 5 2 C2.47266765 1.34444881 2.47266765 1.34444881 0 1 C0 0.67 0 0.34 0 0 Z " fill="#464241" transform="translate(56,28)"/>
<path d="M0 0 C5.28 0 10.56 0 16 0 C16 0.33 16 0.66 16 1 C13.69 1 11.38 1 9 1 C8.67 1.99 8.34 2.98 8 4 C7.01 3.34 6.02 2.68 5 2 C3.34450469 1.61500109 1.6777567 1.27206865 0 1 C0 0.67 0 0.34 0 0 Z " fill="#464340" transform="translate(25,28)"/>
</svg>
